<svg class="icon" viewBox="0 0 1024 1024" xmlns="http://www.w3.org/2000/svg" width="200" height="200"><defs><style/></defs><path d="M270.885 96.861l131.984 169.88 1.763 2.868c6.604 8.382 10.996 17.65 13.197 26.912 3.082 11.033 3.519 22.285 1.763 33.977-1.763 11.47-5.501 22.06-11.003 31.77l-1.32 1.765c-5.494 8.826-12.76 16.765-21.119 22.945l-2.418 1.104-64.01 46.992c-3.963 9.263-9.24 29.562 8.796 54.713 28.376 41.033 59.615 78.982 94.149 113.397v.444-.444c34.76 35.079 72.593 66.408 112.63 94.87 25.518 17.65 46.197 12.794 55.44 8.382l47.947-65.965v-.225c6.601-9.262 14.96-16.763 24.638-22.945 9.458-5.512 19.799-9.262 31.24-11.027h1.535c10.787-1.547 21.782-.883 32.342 1.766l1.756.88c9.904 2.87 19.143 7.946 27.72 14.563v-.442l169.824 132.815 2.64 1.763c8.802 7.503 15.396 16.328 20.68 25.59 5.275 10.59 8.795 22.508 9.238 34.862.44 12.572-1.765 24.268-5.947 35.737-4.394 11.032-11.66 21.18-20.89 29.567-11.004 10.59-24.42 21.18-40.48 30.885l-2.203 1.105c-15.396 9.266-33.432 18.093-55.431 25.37-93.267 30.89-192.916 25.151-288.61-6.842-100.971-33.754-197.984-97.292-277.172-176.715C189.712 677.312 126.795 580.463 92.7 478.755 61.023 382.562 55.52 282.844 86.543 189.3c7.258-22.503 16.715-41.255 26.394-57.801 9.684-16.108 19.798-29.566 30.138-40.595 8.796-9.268 18.699-16.107 29.695-20.741l3.084-.881c10.122-3.75 21.118-5.295 32.558-4.854 12.315.443 24.193 3.53 34.752 8.826l1.983 1.541 25.738 22.066zm77.87 212.459L216.77 139.439V139c-.882-1.768-2.864-3.092-3.964-3.972l-.875-.223c-1.982-.662-3.965-1.764-6.383-1.764-2.201 0-4.175 0-5.94.661l-.881.441c-1.756.885-3.958 2.207-5.276 3.974-7.039 7.72-14.742 16.989-22 29.123-7.477 12.351-14.078 26.913-20.019 43.902-25.738 78.32-20.454 163.922 6.822 245.992 29.913 90.899 86.89 178.483 159.702 251.509 72.595 72.582 159.702 129.724 250.777 160.169 82.052 27.357 166.743 32.212 245.057 6.4 16.279-5.52 30.35-12.136 42.455-19.195l1.099-.444c11.877-7.5 21.992-15 29.476-22.06 1.758-1.766 3.085-3.529 3.52-5.52h.436c.665-1.761 1.101-4.192 1.101-6.616-.436-2.87-1.1-5.072-1.973-6.399-.447-1.984-1.766-3.087-3.085-4.411l-1.317-.441-169.827-132.375v-.442c-.879-.879-2.636-1.765-4.4-2.203h-.875c-1.546-.443-3.519-.443-5.502-.443h-.437c-2.427.443-4.183.88-5.949 1.767-1.317.879-2.855 1.983-4.393 4.41L642.2 751.88c-2.637 4.414-6.592 7.945-11.214 10.59-.216.664-60.715 43.466-134.847-8.162-44-31.326-84.908-65.524-121.65-102.369v-.22c-37.172-37.064-71.493-78.1-102.288-122.225-51.695-74.346-8.577-135.017-8.577-135.017 2.42-3.971 5.495-7.502 9.46-10.15l70.172-51.624 2.42-1.764c1.32-1.104 2.638-2.207 3.52-3.091l.657-.881a12.04 12.04 0 0 0 1.545-5.956c.655-2.427.655-4.414 0-6.399-.445-1.322-.882-2.868-1.983-3.972l-.66-1.321zM270.885 96.86z" data-spm-anchor-id="a313x.7781069.0.i3" fill="#fff"/></svg>