<?xml version="1.0" standalone="no"?><!DOCTYPE svg PUBLIC "-//W3C//DTD SVG 1.1//EN" "http://www.w3.org/Graphics/SVG/1.1/DTD/svg11.dtd"><svg t="1524709060270" class="icon" style="" viewBox="0 0 1024 1024" version="1.1" xmlns="http://www.w3.org/2000/svg" p-id="2036" xmlns:xlink="http://www.w3.org/1999/xlink" width="200" height="200"><defs><style type="text/css"></style></defs><path d="M270.885012 96.861048l131.983987 169.879062 1.763157 2.869351c6.603395 8.381901 10.995425 17.649985 13.196557 26.91193 3.082198 11.032264 3.51915 22.284539 1.763157 33.976836-1.763157 11.470239-5.501294 22.060435-11.002588 31.769564l-1.320065 1.765203c-5.494131 8.826016-12.759605 16.764825-21.118993 22.944572l-2.418073 1.104147-64.009849 46.992267c-3.963265 9.262968-9.239432 29.562293 8.795317 54.713113 28.376281 41.032532 59.615773 78.981842 94.149287 113.396653l0 0.444115 0-0.444115c34.759665 35.078936 72.593342 66.408479 112.629173 94.870718 25.51921 17.648962 46.198182 12.793374 55.440683 8.381901l47.947012-65.965387 0-0.225127c6.601348-9.261944 14.959713-16.762779 24.638143-22.944572l0 0c9.458419-5.51255 19.798928-9.261944 31.239492-11.027148l1.535983 0c10.786671-1.547239 21.782096-0.883113 32.341592 1.766226l1.755993 0.880043c9.903557 2.869351 19.142989 7.945973 27.719318 14.562671l0-0.442068 169.824827 132.814911 2.639107 1.763157c8.80248 7.502881 15.396665 16.327874 20.679995 25.589818l0 0c5.276167 10.590196 8.795317 22.50762 9.238408 34.861996 0.440022 12.57234-1.76418 24.267706-5.946432 35.736922l0 0c-4.394077 11.032264-11.659551 21.180392-20.890796 29.567409-11.003612 10.590196-24.419156 21.179368-40.479947 30.884404l-2.202155 1.105171c-15.396665 9.266038-33.432437 18.093077-55.431473 25.369807-93.267197 30.889521-192.915731 25.151843-288.61021-6.841825-100.970646-33.753755-197.983143-97.29186-277.171694-176.714747-79.851653-79.865979-142.768611-176.714747-176.86415-278.423197-31.676443-96.192829-37.178761-195.910948-6.157233-289.454438 7.258311-22.503527 16.715707-41.255613 26.394137-57.801451l0 0 0 0c9.68457-16.107863 19.797905-29.566386 30.138414-40.594557 8.79634-9.268084 18.698874-16.107863 29.695323-20.741393l3.083222-0.881067c10.122545-3.749394 21.11797-5.294586 32.558533-4.853541 12.314467 0.443092 24.193005 3.530406 34.751478 8.826016l1.983167 1.541099L270.885012 96.861048 270.885012 96.861048zM348.75452 309.319881 348.75452 309.319881 216.770534 139.438773l0-0.437975c-0.881067-1.768273-2.863211-3.091408-3.963265-3.971451l-0.874927-0.223081c-1.982144-0.662079-3.965312-1.76418-6.383384-1.76418-2.201132 0-4.175089 0-5.939269 0.661056l-0.88209 0.441045c-1.755993 0.88516-3.957125 2.207271-5.275143 3.973498-7.039323 7.720845-14.742772 16.98893-22.00006 29.123294l0 0c-7.477298 12.351306-14.078647 26.912953-20.018939 43.901883-25.738198 78.319763-20.454868 163.922397 6.821359 245.992577 29.913287 90.898243 86.890976 178.483021 159.702282 251.508197 72.595388 72.582085 159.702282 129.724527 250.776534 160.168909 82.052784 27.357068 166.743652 32.212656 245.057275 6.399757 16.278755-5.519714 30.349215-12.135388 42.454928-19.194154l1.099031-0.444115c11.877515-7.499811 21.991874-15.000646 29.476335-22.059412 1.75804-1.766226 3.085268-3.529383 3.520173-5.519714l0.435928 0c0.665149-1.762133 1.101077-4.192485 1.101077-6.616698-0.435928-2.870374-1.101077-5.072529-1.972934-6.398734l0 0 0 0c-0.447185-1.984191-1.766226-3.087315-3.085268-4.411473l-1.316995-0.441045-169.826873-132.37489 0-0.442068c-0.87902-0.87902-2.636037-1.765203-4.40124-2.203178l-0.873903 0c-1.546216-0.443092-3.51915-0.443092-5.502317-0.443092l-0.436952 0c-2.427282 0.443092-4.183276 0.881067-5.948479 1.76725l0 0c-1.316995 0.87902-2.855024 1.983167-4.393054 4.409426l0 0 0 0-51.921533 71.040986c-2.63706 4.41352-6.592139 7.944949-11.213389 10.590196-0.216941 0.663102-60.715827 43.464931-134.847198-8.162914-44.00012-31.325449-84.907809-65.523319-121.649618-102.368482l0-0.221034c-37.172621-37.063127-71.493288-78.098729-102.288664-122.223692-51.695383-74.346265-8.577353-135.017066-8.577353-135.017066 2.420119-3.971451 5.495154-7.502881 9.459442-10.151197l70.173223-51.622728 2.420119-1.76418c1.320065-1.104147 2.638083-2.207271 3.51915-3.091408l0.656963-0.881067c1.100054-1.984191 1.545192-3.972475 1.545192-5.955642 0.654916-2.427282 0.654916-4.414543 0-6.398734-0.445138-1.322112-0.88209-2.868327-1.983167-3.972475L348.75452 309.319881 348.75452 309.319881zM270.885012 96.861048 270.885012 96.861048 270.885012 96.861048 270.885012 96.861048 270.885012 96.861048z" p-id="2037" data-spm-anchor-id="a313x.7781069.0.i3" class="" fill="#ffffff"></path></svg>